<svg width="291" height="38" viewBox="0 0 291 38" fill="none" xmlns="http://www.w3.org/2000/svg">
<path d="M79.5464 38L79.5744 37.8938C79.7737 35.5205 79.8786 33.0342 79.8786 30.476C79.8786 13.6438 75.3257 0 69.7098 0C64.5415 0 60.2753 11.5548 59.6249 26.5103L79.5464 38Z" fill="#14222A"/>
<path d="M56.7514 37.9999L56.7724 37.9177C56.9263 36.0684 57.0102 34.1369 57.0102 32.1438C57.0102 19.0445 53.4679 8.42459 49.0934 8.42459C45.072 8.42459 41.75 17.4177 41.2465 29.0582L56.7514 37.9999Z" fill="#14222A"/>
<path d="M38.2996 38L38.3276 37.8938C38.5269 35.5205 38.6318 33.0342 38.6318 30.476C38.6318 13.6438 34.0789 0 28.463 0C23.2947 0 19.0286 11.5548 18.3781 26.5103L38.2996 38Z" fill="#14222A"/>
<path d="M15.505 37.9999L15.526 37.9177C15.6798 36.0684 15.7637 34.1369 15.7637 32.1438C15.7637 19.0445 12.2214 8.42459 7.8469 8.42459C3.82554 8.42459 0.503544 17.4177 0 29.0582L15.505 37.9999Z" fill="#14222A"/>
<path d="M163.912 20.5963C163.078 20.1667 162.058 19.9001 160.859 19.8112L158.702 19.6483C157.51 19.5371 156.599 19.2038 155.969 18.6335C155.33 18.0706 155.019 17.3151 155.019 16.3744C155.019 15.7152 155.182 15.1078 155.501 14.5523C155.821 13.9968 156.319 13.545 156.997 13.2117C157.674 12.8709 158.554 12.708 159.644 12.708C160.734 12.708 161.677 12.8932 162.378 13.2709C163.078 13.6487 163.592 14.1375 163.927 14.7449C164.254 15.3523 164.426 16.0041 164.426 16.7077H165.765C165.765 15.7374 165.531 14.8634 165.056 14.0857C164.581 13.3079 163.896 12.6858 162.993 12.2265C162.082 11.7599 160.968 11.5303 159.652 11.5303C158.336 11.5303 157.254 11.7451 156.358 12.1747C155.47 12.6043 154.801 13.1894 154.357 13.9153C153.913 14.6412 153.687 15.4634 153.687 16.3744C153.687 17.6484 154.123 18.6705 154.995 19.4557C155.867 20.2408 157.059 20.6926 158.562 20.8185L160.719 20.9815C162.206 21.1222 163.312 21.5222 164.036 22.1666C164.76 22.8184 165.126 23.6035 165.126 24.5294C165.126 25.2849 164.924 25.9441 164.519 26.5218C164.114 27.0922 163.507 27.544 162.697 27.8773C161.887 28.2106 160.882 28.3736 159.675 28.3736C158.39 28.3736 157.331 28.1884 156.506 27.8181C155.68 27.4477 155.073 26.9514 154.684 26.3219C154.294 25.6923 154.1 24.9886 154.1 24.2035H152.76C152.76 25.2256 153.017 26.1367 153.531 26.944C154.045 27.7514 154.808 28.3884 155.836 28.8476C156.856 29.3068 158.141 29.5439 159.675 29.5439C161.124 29.5439 162.354 29.3291 163.367 28.8995C164.379 28.4699 165.142 27.8699 165.672 27.107C166.201 26.3441 166.466 25.4849 166.466 24.5294C166.466 23.685 166.248 22.9221 165.82 22.2481C165.391 21.574 164.76 21.0185 163.927 20.5889L163.912 20.5963Z" fill="#14222A"/>
<path d="M171.52 12.7746H170.235V16.7966H167.759V17.8113H170.235V25.5589C170.235 26.4848 170.398 27.2255 170.733 27.7736C171.06 28.3217 171.535 28.7143 172.143 28.9365C172.75 29.1661 173.459 29.2772 174.269 29.2772H176.418V28.1439H173.996C173.217 28.1439 172.61 27.9365 172.174 27.5217C171.738 27.107 171.52 26.5218 171.52 25.7663V17.8113H176.418V16.7966H171.52V12.7746Z" fill="#14222A"/>
<path d="M187.951 24.3294C187.951 25.5219 187.593 26.4848 186.876 27.2255C186.16 27.9662 185.186 28.3292 183.972 28.3292C182.757 28.3292 181.846 27.9736 181.215 27.2552C180.576 26.5441 180.265 25.6108 180.265 24.4628V16.7892H178.925V24.1813C178.925 25.8108 179.33 27.107 180.14 28.0625C180.95 29.018 182.134 29.4994 183.707 29.4994H183.777C184.852 29.4994 185.732 29.2772 186.425 28.8254C187.118 28.381 187.639 27.7514 187.998 26.9441C188.091 26.7367 188.169 26.5293 188.231 26.3071V29.1439H189.275V16.7966H187.966V24.3294H187.951Z" fill="#14222A"/>
<path d="M203.814 19.4705C203.775 19.3965 203.743 19.315 203.705 19.2335C203.214 18.3595 202.544 17.6781 201.672 17.1744C200.808 16.6707 199.788 16.4189 198.612 16.4189C197.607 16.4189 196.712 16.5967 195.941 16.9596C195.162 17.3225 194.508 17.8114 193.97 18.4336C193.433 19.0558 193.028 19.7446 192.748 20.5075C192.467 21.2704 192.327 22.0555 192.327 22.8703V23.1073C192.327 23.9517 192.467 24.7665 192.763 25.5294C193.052 26.2997 193.472 26.9885 194.009 27.5885C194.554 28.1959 195.216 28.6699 196.003 29.0254C196.789 29.381 197.662 29.5587 198.635 29.5587C199.772 29.5587 200.784 29.3143 201.664 28.8255C202.544 28.3366 203.245 27.6552 203.759 26.7663C203.884 26.5589 203.985 26.3367 204.078 26.1071V29.1514H205.114V11.9748H203.806V19.4705H203.814ZM203.891 23.5517C203.891 24.4924 203.673 25.3294 203.237 26.0553C202.801 26.7886 202.202 27.3589 201.431 27.7885C200.66 28.2107 199.78 28.4255 198.767 28.4255C197.708 28.4255 196.797 28.181 196.034 27.6922C195.263 27.2033 194.679 26.5515 194.266 25.7294C193.854 24.9072 193.651 23.9887 193.651 22.9888C193.651 21.9889 193.854 21.1149 194.259 20.2927C194.664 19.4705 195.248 18.8039 196.003 18.3002C196.758 17.7966 197.685 17.5447 198.775 17.5447C199.78 17.5447 200.668 17.7595 201.438 18.1817C202.209 18.6039 202.809 19.1817 203.245 19.9001C203.681 20.6186 203.899 21.4334 203.899 22.3222V23.5443L203.891 23.5517Z" fill="#14222A"/>
<path d="M210.051 14.2114C210.433 14.2114 210.705 14.1225 210.877 13.9374C211.048 13.7596 211.134 13.5226 211.134 13.2411C211.134 12.9448 211.04 12.7004 210.861 12.5078C210.682 12.3227 210.417 12.2264 210.067 12.2264C209.716 12.2264 209.428 12.3227 209.249 12.5078C209.07 12.693 208.977 12.9374 208.977 13.2411C208.977 13.5226 209.07 13.7522 209.249 13.9374C209.428 14.1151 209.693 14.2114 210.043 14.2114H210.051Z" fill="#14222A"/>
<path d="M207.778 16.7964V17.8778H209.927V29.1585H211.266V16.7964H207.778Z" fill="#14222A"/>
<path d="M225.992 18.4187C225.416 17.8039 224.707 17.3225 223.874 16.9595C223.041 16.5966 222.098 16.4188 221.039 16.4188C219.98 16.4188 219.014 16.5966 218.181 16.9595C217.348 17.3225 216.639 17.8039 216.063 18.4187C215.487 19.0335 215.051 19.7223 214.755 20.4926C214.459 21.2629 214.311 22.0555 214.311 22.8702V23.1073C214.311 23.9072 214.451 24.6849 214.747 25.4478C215.035 26.2107 215.463 26.8922 216.032 27.5069C216.6 28.1217 217.309 28.6106 218.15 28.9883C218.991 29.3661 219.957 29.5513 221.047 29.5513C222.137 29.5513 223.095 29.3661 223.928 28.9883C224.761 28.6106 225.462 28.1143 226.031 27.5069C226.599 26.8922 227.035 26.2107 227.331 25.4478C227.627 24.6849 227.775 23.9072 227.775 23.1073V22.8702C227.775 22.0555 227.619 21.2629 227.316 20.4926C227.012 19.7223 226.568 19.0335 225.992 18.4187ZM225.805 25.6626C225.384 26.4848 224.777 27.1514 223.975 27.6551C223.173 28.1588 222.199 28.4106 221.039 28.4106C219.879 28.4106 218.905 28.1588 218.096 27.6551C217.286 27.1514 216.671 26.4922 216.25 25.6626C215.829 24.8405 215.619 23.9516 215.619 22.9887C215.619 22.0258 215.829 21.0926 216.266 20.2704C216.702 19.4482 217.317 18.789 218.135 18.2928C218.952 17.7965 219.918 17.5521 221.039 17.5521C222.161 17.5521 223.15 17.7965 223.944 18.2928C224.746 18.789 225.361 19.4482 225.789 20.2704C226.218 21.0926 226.436 22.0036 226.436 22.9887C226.436 23.9739 226.226 24.8331 225.805 25.6626Z" fill="#14222A"/>
<path d="M242.672 19.648H245.935C245.92 21.4331 245.709 22.9811 245.289 24.2773C245.125 24.7736 244.931 25.2254 244.713 25.6402L239.635 20.5443C238.81 19.7147 238.21 18.974 237.829 18.3296C237.447 17.6852 237.26 16.9667 237.26 16.1668C237.26 15.1298 237.572 14.3447 238.202 13.804C238.825 13.2633 239.83 12.9892 241.2 12.9892C241.598 12.9892 242.026 12.9966 242.485 13.0115C242.945 13.0263 243.42 13.0485 243.895 13.0855C244.37 13.1152 244.829 13.167 245.258 13.2263V12.093C244.627 12.0115 243.988 11.9523 243.326 11.9152C242.664 11.8782 242.042 11.856 241.442 11.856C240.173 11.856 239.129 12.0263 238.327 12.3597C237.517 12.7004 236.925 13.1818 236.544 13.8188C236.162 14.4558 235.975 15.2261 235.975 16.1372C235.975 16.7519 236.069 17.3149 236.256 17.8334C236.442 18.3518 236.746 18.8777 237.159 19.4258C237.182 19.4629 237.213 19.4999 237.245 19.5295C236.427 20.011 235.726 20.6257 235.142 21.3887C234.472 22.2701 234.137 23.2626 234.137 24.381V24.6403C234.137 25.5958 234.402 26.4476 234.932 27.1957C235.461 27.9438 236.17 28.5215 237.073 28.9363C237.969 29.3511 238.958 29.5585 240.032 29.5585C241.239 29.5585 242.283 29.3214 243.178 28.84C243.84 28.4845 244.417 28.0178 244.907 27.4327L246.613 29.1585H248.225L245.569 26.492C246.068 25.6698 246.449 24.707 246.714 23.6033C247.002 22.4182 247.142 21.0924 247.158 19.648H248.746V18.6111H242.68V19.648H242.672ZM243.311 27.3512C242.439 28.0623 241.341 28.4252 240.017 28.4252C239.238 28.4252 238.498 28.2771 237.79 27.9808C237.081 27.6845 236.505 27.2401 236.069 26.6624C235.633 26.0846 235.415 25.3662 235.415 24.5218C235.415 23.5959 235.672 22.7589 236.185 22.0182C236.637 21.359 237.245 20.8331 237.984 20.4184C238.234 20.6998 238.506 20.9887 238.81 21.2998L244.066 26.6031C243.833 26.8846 243.591 27.1438 243.319 27.366L243.311 27.3512Z" fill="#14222A"/>
<path d="M268.417 27.0995C267.218 27.9513 265.746 28.3809 264.002 28.3809C262.717 28.3809 261.595 28.1587 260.645 27.7069C259.695 27.2624 258.909 26.6699 258.278 25.9292C257.647 25.1885 257.18 24.3515 256.868 23.4109C256.557 22.4702 256.401 21.5147 256.401 20.537C256.401 19.4852 256.557 18.4927 256.868 17.5446C257.18 16.6039 257.655 15.7669 258.278 15.0411C258.901 14.3152 259.68 13.7375 260.606 13.3227C261.533 12.9079 262.6 12.7005 263.823 12.7005C264.944 12.7005 265.964 12.8857 266.875 13.2634C267.794 13.6412 268.549 14.1967 269.141 14.9374C269.733 15.6781 270.107 16.5743 270.255 17.6409H271.618C271.47 16.4187 271.057 15.3447 270.379 14.4263C269.702 13.5078 268.806 12.7968 267.693 12.2857C266.579 11.7746 265.287 11.5228 263.823 11.5228C262.359 11.5228 261.019 11.782 259.913 12.2857C258.808 12.7968 257.896 13.4782 257.18 14.3374C256.464 15.1966 255.926 16.1447 255.568 17.1891C255.21 18.2334 255.038 19.2852 255.038 20.3518V20.7073C255.038 21.6999 255.21 22.7146 255.56 23.759C255.911 24.8034 256.44 25.7588 257.157 26.6329C257.873 27.5069 258.8 28.2105 259.944 28.7512C261.081 29.2919 262.436 29.566 264.002 29.566C265.567 29.566 266.836 29.2993 267.958 28.7734C269.079 28.2476 269.982 27.5291 270.668 26.6106C271.353 25.6922 271.789 24.6404 271.968 23.4479H270.605C270.34 25.033 269.608 26.2551 268.417 27.1069V27.0995Z" fill="#14222A"/>
<path d="M285.214 18.4187C284.638 17.8039 283.929 17.3225 283.096 16.9595C282.263 16.5966 281.32 16.4188 280.261 16.4188C279.202 16.4188 278.237 16.5966 277.403 16.9595C276.57 17.3225 275.862 17.8039 275.285 18.4187C274.709 19.0335 274.273 19.7223 273.977 20.4926C273.681 21.2629 273.533 22.0555 273.533 22.8702V23.1073C273.533 23.9072 273.673 24.6849 273.969 25.4478C274.257 26.2107 274.686 26.8922 275.254 27.5069C275.823 28.1217 276.531 28.6106 277.372 28.9883C278.213 29.3661 279.179 29.5513 280.269 29.5513C281.359 29.5513 282.317 29.3661 283.15 28.9883C283.984 28.6106 284.685 28.1143 285.253 27.5069C285.821 26.8922 286.258 26.2107 286.553 25.4478C286.849 24.6849 286.997 23.9072 286.997 23.1073V22.8702C286.997 22.0555 286.842 21.2629 286.538 20.4926C286.234 19.7223 285.79 19.0335 285.214 18.4187ZM285.027 25.6626C284.607 26.4848 283.999 27.1514 283.197 27.6551C282.395 28.1588 281.422 28.4106 280.261 28.4106C279.101 28.4106 278.128 28.1588 277.318 27.6551C276.508 27.1514 275.893 26.4922 275.472 25.6626C275.052 24.8405 274.841 23.9516 274.841 22.9887C274.841 22.0258 275.052 21.0926 275.488 20.2704C275.924 19.4482 276.539 18.789 277.357 18.2928C278.174 17.7965 279.14 17.5521 280.261 17.5521C281.383 17.5521 282.372 17.7965 283.166 18.2928C283.968 18.789 284.583 19.4482 285.012 20.2704C285.44 21.0926 285.658 22.0036 285.658 22.9887C285.658 23.9739 285.448 24.8331 285.027 25.6626Z" fill="#14222A"/>
<path d="M291 27.3439H289.271V29.1586H291V27.3439Z" fill="#14222A"/>
<path d="M101.925 21.359H109.424V19.2925H101.925V13.9447H109.945V11.8782H99.5027V29.0622H110.187V26.9882H101.925V21.359Z" fill="#14222A"/>
<path d="M112.321 11.8782V13.6632H114.151V29.0622H116.526V11.8782H112.321Z" fill="#14222A"/>
<path d="M119.399 11.8782V13.6632H121.229V29.0622H123.605V11.8782H119.399Z" fill="#14222A"/>
<path d="M129.468 14.4632C129.998 14.4632 130.387 14.3299 130.644 14.0632C130.901 13.7966 131.026 13.4633 131.026 13.0485C131.026 12.6337 130.901 12.3004 130.644 12.0337C130.387 11.7671 129.998 11.6338 129.468 11.6338C128.939 11.6338 128.549 11.7671 128.293 12.0337C128.036 12.3004 127.911 12.6411 127.911 13.0485C127.911 13.4558 128.036 13.7966 128.293 14.0632C128.549 14.3299 128.939 14.4632 129.468 14.4632Z" fill="#14222A"/>
<path d="M126.774 16.4926V18.2777H128.799V29.0621H131.174V16.4926H126.774Z" fill="#14222A"/>
<path d="M144.319 22.8775C143.462 22.2775 142.325 21.8998 140.9 21.7591L139.468 21.6183C138.689 21.5369 138.136 21.3591 137.793 21.0776C137.458 20.7962 137.287 20.4184 137.287 19.9444C137.287 19.3963 137.528 18.937 138.004 18.5815C138.479 18.226 139.179 18.0408 140.106 18.0408C141.033 18.0408 141.726 18.2186 142.201 18.5741C142.668 18.9296 142.917 19.3518 142.933 19.8555H145.16C145.129 18.6185 144.646 17.6853 143.727 17.0557C142.808 16.4261 141.601 16.115 140.114 16.115C139.125 16.115 138.253 16.2706 137.49 16.5742C136.734 16.8779 136.135 17.3223 135.706 17.8927C135.278 18.463 135.06 19.1518 135.06 19.9518C135.06 21.0184 135.457 21.8479 136.251 22.4331C137.046 23.0182 138.066 23.3812 139.32 23.5071L140.752 23.6478C141.679 23.7441 142.341 23.9367 142.754 24.2256C143.166 24.5144 143.369 24.9218 143.369 25.4403C143.369 26.018 143.089 26.5143 142.528 26.9143C141.967 27.3142 141.157 27.5142 140.106 27.5142C138.938 27.5142 138.105 27.2994 137.622 26.8698C137.131 26.4402 136.874 25.981 136.843 25.4921H134.616C134.647 26.7143 135.138 27.6846 136.088 28.3882C137.038 29.0919 138.377 29.4474 140.106 29.4474C141.181 29.4474 142.131 29.2771 142.948 28.9438C143.774 28.603 144.42 28.1364 144.887 27.529C145.355 26.9217 145.596 26.2328 145.596 25.4477C145.596 24.3515 145.168 23.4997 144.311 22.8923L144.319 22.8775Z" fill="#14222A"/>
<path d="M99.4874 8.43401V10.745L106.862 8.43401H99.4874Z" fill="#14222A"/>
</svg>
