<svg width="291" height="38" viewBox="0 0 291 38" fill="none" xmlns="http://www.w3.org/2000/svg">
<path d="M163.912 20.5959C163.078 20.1663 162.058 19.8997 160.859 19.8108L158.702 19.6478C157.51 19.5367 156.599 19.2034 155.968 18.6331C155.33 18.0702 155.018 17.3147 155.018 16.374C155.018 15.7148 155.182 15.1074 155.501 14.5519C155.821 13.9964 156.319 13.5445 156.996 13.2112C157.674 12.8705 158.554 12.7076 159.644 12.7076C160.734 12.7076 161.677 12.8927 162.377 13.2705C163.078 13.6482 163.592 14.1371 163.927 14.7445C164.254 15.3518 164.425 16.0036 164.425 16.7073H165.765C165.765 15.737 165.531 14.863 165.056 14.0853C164.581 13.3075 163.896 12.6853 162.993 12.2261C162.082 11.7595 160.968 11.5299 159.652 11.5299C158.336 11.5299 157.253 11.7447 156.358 12.1743C155.47 12.6039 154.8 13.189 154.357 13.9149C153.913 14.6408 153.687 15.4629 153.687 16.374C153.687 17.648 154.123 18.6701 154.995 19.4553C155.867 20.2404 157.059 20.6922 158.562 20.8181L160.719 20.9811C162.206 21.1218 163.312 21.5218 164.036 22.1662C164.76 22.818 165.126 23.6031 165.126 24.529C165.126 25.2845 164.924 25.9437 164.519 26.5214C164.114 27.0918 163.507 27.5436 162.697 27.8769C161.887 28.2102 160.882 28.3731 159.675 28.3731C158.39 28.3731 157.331 28.188 156.506 27.8176C155.68 27.4473 155.073 26.951 154.684 26.3214C154.294 25.6919 154.1 24.9882 154.1 24.2031H152.76C152.76 25.2252 153.017 26.1363 153.531 26.9436C154.045 27.751 154.808 28.388 155.836 28.8472C156.856 29.3064 158.141 29.5434 159.675 29.5434C161.124 29.5434 162.354 29.3286 163.366 28.899C164.379 28.4694 165.142 27.8695 165.671 27.1066C166.201 26.3437 166.466 25.4845 166.466 24.529C166.466 23.6846 166.248 22.9217 165.819 22.2476C165.391 21.5736 164.76 21.0181 163.927 20.5885L163.912 20.5959Z" fill="#14222A"/>
<path d="M171.52 12.7742H170.235V16.7961H167.758V17.8109H170.235V25.5585C170.235 26.4844 170.398 27.225 170.733 27.7732C171.06 28.3213 171.535 28.7138 172.143 28.936C172.75 29.1657 173.459 29.2768 174.269 29.2768H176.418V28.1435H173.996C173.217 28.1435 172.61 27.9361 172.174 27.5213C171.738 27.1065 171.52 26.5214 171.52 25.7659V17.8109H176.418V16.7961H171.52V12.7742Z" fill="#14222A"/>
<path d="M187.951 24.329C187.951 25.5215 187.593 26.4844 186.876 27.2251C186.16 27.9658 185.186 28.3287 183.971 28.3287C182.757 28.3287 181.846 27.9732 181.215 27.2547C180.576 26.5437 180.265 25.6104 180.265 24.4623V16.7888H178.925V24.1809C178.925 25.8104 179.33 27.1066 180.14 28.0621C180.95 29.0176 182.134 29.499 183.707 29.499H183.777C184.851 29.499 185.731 29.2768 186.424 28.825C187.118 28.3806 187.639 27.751 187.997 26.9436C188.091 26.7363 188.169 26.5289 188.231 26.3067V29.1435H189.275V16.7962H187.966V24.329H187.951Z" fill="#14222A"/>
<path d="M203.813 19.4701C203.775 19.396 203.743 19.3146 203.704 19.2331C203.214 18.3591 202.544 17.6777 201.672 17.174C200.808 16.6703 199.787 16.4185 198.612 16.4185C197.607 16.4185 196.711 16.5962 195.941 16.9592C195.162 17.3221 194.508 17.811 193.97 18.4332C193.433 19.0553 193.028 19.7442 192.748 20.5071C192.467 21.27 192.327 22.0551 192.327 22.8699V23.1069C192.327 23.9513 192.467 24.766 192.763 25.529C193.051 26.2993 193.472 26.9881 194.009 27.5881C194.554 28.1954 195.216 28.6695 196.003 29.025C196.789 29.3805 197.661 29.5583 198.635 29.5583C199.772 29.5583 200.784 29.3139 201.664 28.825C202.544 28.3362 203.245 27.6547 203.759 26.7659C203.884 26.5585 203.985 26.3363 204.078 26.1067V29.1509H205.114V11.9743H203.806V19.4701H203.813ZM203.891 23.5513C203.891 24.492 203.673 25.329 203.237 26.0548C202.801 26.7881 202.201 27.3585 201.431 27.7881C200.66 28.2103 199.78 28.4251 198.767 28.4251C197.708 28.4251 196.797 28.1806 196.034 27.6918C195.263 27.2029 194.679 26.5511 194.266 25.7289C193.854 24.9068 193.651 23.9883 193.651 22.9884C193.651 21.9885 193.854 21.1145 194.258 20.2923C194.663 19.4701 195.247 18.8035 196.003 18.2998C196.758 17.7962 197.685 17.5443 198.775 17.5443C199.78 17.5443 200.667 17.7591 201.438 18.1813C202.209 18.6035 202.809 19.1812 203.245 19.8997C203.681 20.6182 203.899 21.4329 203.899 22.3218V23.5439L203.891 23.5513Z" fill="#14222A"/>
<path d="M210.051 14.211C210.433 14.211 210.705 14.1221 210.877 13.9369C211.048 13.7592 211.134 13.5222 211.134 13.2407C211.134 12.9444 211.04 12.7 210.861 12.5074C210.682 12.3222 210.417 12.226 210.067 12.226C209.716 12.226 209.428 12.3222 209.249 12.5074C209.07 12.6926 208.977 12.937 208.977 13.2407C208.977 13.5222 209.07 13.7518 209.249 13.9369C209.428 14.1147 209.693 14.211 210.043 14.211H210.051Z" fill="#14222A"/>
<path d="M207.777 16.796V17.8774H209.927V29.1581H211.266V16.796H207.777Z" fill="#14222A"/>
<path d="M225.992 18.4183C225.416 17.8035 224.707 17.322 223.874 16.9591C223.04 16.5962 222.098 16.4184 221.039 16.4184C219.98 16.4184 219.014 16.5962 218.181 16.9591C217.348 17.322 216.639 17.8035 216.063 18.4183C215.487 19.033 215.051 19.7219 214.755 20.4922C214.459 21.2625 214.311 22.0551 214.311 22.8698V23.1068C214.311 23.9068 214.451 24.6845 214.747 25.4474C215.035 26.2103 215.463 26.8918 216.032 27.5065C216.6 28.1213 217.309 28.6102 218.15 28.9879C218.991 29.3657 219.957 29.5508 221.047 29.5508C222.137 29.5508 223.095 29.3657 223.928 28.9879C224.761 28.6102 225.462 28.1139 226.031 27.5065C226.599 26.8918 227.035 26.2103 227.331 25.4474C227.627 24.6845 227.775 23.9068 227.775 23.1068V22.8698C227.775 22.0551 227.619 21.2625 227.316 20.4922C227.012 19.7219 226.568 19.033 225.992 18.4183ZM225.805 25.6622C225.384 26.4844 224.777 27.151 223.975 27.6547C223.173 28.1583 222.199 28.4102 221.039 28.4102C219.879 28.4102 218.905 28.1583 218.095 27.6547C217.286 27.151 216.67 26.4918 216.25 25.6622C215.829 24.84 215.619 23.9512 215.619 22.9883C215.619 22.0254 215.829 21.0922 216.265 20.27C216.702 19.4478 217.317 18.7886 218.134 18.2923C218.952 17.7961 219.918 17.5517 221.039 17.5517C222.16 17.5517 223.149 17.7961 223.944 18.2923C224.746 18.7886 225.361 19.4478 225.789 20.27C226.218 21.0922 226.436 22.0032 226.436 22.9883C226.436 23.9734 226.225 24.8326 225.805 25.6622Z" fill="#14222A"/>
<path d="M242.672 19.6476H245.935C245.919 21.4327 245.709 22.9807 245.289 24.2769C245.125 24.7732 244.931 25.225 244.712 25.6398L239.635 20.5439C238.81 19.7143 238.21 18.9736 237.828 18.3292C237.447 17.6848 237.26 16.9663 237.26 16.1664C237.26 15.1294 237.572 14.3443 238.202 13.8036C238.825 13.2629 239.83 12.9888 241.2 12.9888C241.598 12.9888 242.026 12.9962 242.485 13.011C242.945 13.0259 243.42 13.0481 243.895 13.0851C244.37 13.1147 244.829 13.1666 245.258 13.2258V12.0926C244.627 12.0111 243.988 11.9519 243.326 11.9148C242.664 11.8778 242.041 11.8556 241.442 11.8556C240.172 11.8556 239.129 12.0259 238.327 12.3592C237.517 12.7 236.925 13.1814 236.544 13.8184C236.162 14.4554 235.975 15.2257 235.975 16.1368C235.975 16.7515 236.069 17.3144 236.255 17.8329C236.442 18.3514 236.746 18.8773 237.159 19.4254C237.182 19.4624 237.213 19.4995 237.244 19.5291C236.427 20.0106 235.726 20.6253 235.142 21.3882C234.472 22.2697 234.137 23.2622 234.137 24.3806V24.6399C234.137 25.5954 234.402 26.4472 234.932 27.1952C235.461 27.9433 236.17 28.5211 237.073 28.9359C237.969 29.3507 238.958 29.558 240.032 29.558C241.239 29.558 242.283 29.321 243.178 28.8396C243.84 28.484 244.417 28.0174 244.907 27.4323L246.613 29.1581H248.224L245.569 26.4916C246.067 25.6694 246.449 24.7065 246.714 23.6029C247.002 22.4178 247.142 21.092 247.158 19.6476H248.746V18.6107H242.68V19.6476H242.672ZM243.311 27.3508C242.439 28.0619 241.341 28.4248 240.017 28.4248C239.238 28.4248 238.498 28.2767 237.79 27.9804C237.081 27.6841 236.505 27.2397 236.069 26.662C235.632 26.0842 235.414 25.3657 235.414 24.5214C235.414 23.5955 235.671 22.7585 236.185 22.0178C236.637 21.3586 237.244 20.8327 237.984 20.4179C238.233 20.6994 238.506 20.9883 238.81 21.2994L244.066 26.6027C243.832 26.8842 243.591 27.1434 243.319 27.3656L243.311 27.3508Z" fill="#14222A"/>
<path d="M268.417 27.0991C267.218 27.9509 265.746 28.3805 264.002 28.3805C262.717 28.3805 261.595 28.1583 260.645 27.7064C259.695 27.262 258.909 26.6695 258.278 25.9288C257.647 25.1881 257.18 24.3511 256.868 23.4104C256.557 22.4698 256.401 21.5143 256.401 20.5366C256.401 19.4848 256.557 18.4923 256.868 17.5442C257.18 16.6035 257.655 15.7665 258.278 15.0406C258.901 14.3148 259.68 13.737 260.606 13.3222C261.533 12.9075 262.6 12.7001 263.822 12.7001C264.944 12.7001 265.964 12.8852 266.875 13.263C267.794 13.6407 268.549 14.1963 269.141 14.9369C269.733 15.6776 270.107 16.5739 270.255 17.6405H271.617C271.47 16.4183 271.057 15.3443 270.379 14.4259C269.702 13.5074 268.806 12.7964 267.693 12.2853C266.579 11.7742 265.286 11.5224 263.822 11.5224C262.358 11.5224 261.019 11.7816 259.913 12.2853C258.807 12.7964 257.896 13.4778 257.18 14.337C256.463 15.1962 255.926 16.1443 255.568 17.1886C255.21 18.233 255.038 19.2848 255.038 20.3514V20.7069C255.038 21.6994 255.21 22.7142 255.56 23.7586C255.911 24.8029 256.44 25.7584 257.156 26.6324C257.873 27.5064 258.8 28.2101 259.944 28.7508C261.081 29.2915 262.436 29.5656 264.002 29.5656C265.567 29.5656 266.836 29.2989 267.957 28.773C269.079 28.2471 269.982 27.5287 270.667 26.6102C271.353 25.6918 271.789 24.64 271.968 23.4475H270.605C270.34 25.0325 269.608 26.2547 268.417 27.1065V27.0991Z" fill="#14222A"/>
<path d="M285.214 18.4183C284.638 17.8035 283.929 17.322 283.096 16.9591C282.263 16.5962 281.32 16.4184 280.261 16.4184C279.202 16.4184 278.237 16.5962 277.403 16.9591C276.57 17.322 275.861 17.8035 275.285 18.4183C274.709 19.033 274.273 19.7219 273.977 20.4922C273.681 21.2625 273.533 22.0551 273.533 22.8698V23.1068C273.533 23.9068 273.673 24.6845 273.969 25.4474C274.257 26.2103 274.686 26.8918 275.254 27.5065C275.822 28.1213 276.531 28.6102 277.372 28.9879C278.213 29.3657 279.179 29.5508 280.269 29.5508C281.359 29.5508 282.317 29.3657 283.15 28.9879C283.984 28.6102 284.684 28.1139 285.253 27.5065C285.821 26.8918 286.257 26.2103 286.553 25.4474C286.849 24.6845 286.997 23.9068 286.997 23.1068V22.8698C286.997 22.0551 286.841 21.2625 286.538 20.4922C286.234 19.7219 285.79 19.033 285.214 18.4183ZM285.027 25.6622C284.607 26.4844 283.999 27.151 283.197 27.6547C282.395 28.1583 281.422 28.4102 280.261 28.4102C279.101 28.4102 278.128 28.1583 277.318 27.6547C276.508 27.151 275.893 26.4918 275.472 25.6622C275.052 24.84 274.841 23.9512 274.841 22.9883C274.841 22.0254 275.052 21.0922 275.488 20.27C275.924 19.4478 276.539 18.7886 277.357 18.2923C278.174 17.7961 279.14 17.5517 280.261 17.5517C281.383 17.5517 282.372 17.7961 283.166 18.2923C283.968 18.7886 284.583 19.4478 285.011 20.27C285.44 21.0922 285.658 22.0032 285.658 22.9883C285.658 23.9734 285.448 24.8326 285.027 25.6622Z" fill="#14222A"/>
<path d="M291 27.3435H289.271V29.1582H291V27.3435Z" fill="#14222A"/>
<path d="M101.924 21.3586H109.424V19.2921H101.924V13.9443H109.945V11.8778H99.5026V29.0618H110.187V26.9878H101.924V21.3586Z" fill="#14222A"/>
<path d="M112.321 11.8778V13.6628H114.151V29.0618H116.526V11.8778H112.321Z" fill="#14222A"/>
<path d="M119.399 11.8778V13.6628H121.229V29.0618H123.604V11.8778H119.399Z" fill="#14222A"/>
<path d="M129.468 14.4628C129.998 14.4628 130.387 14.3294 130.644 14.0628C130.901 13.7961 131.026 13.4628 131.026 13.048C131.026 12.6333 130.901 12.3 130.644 12.0333C130.387 11.7667 129.998 11.6333 129.468 11.6333C128.939 11.6333 128.549 11.7667 128.292 12.0333C128.035 12.3 127.911 12.6407 127.911 13.048C127.911 13.4554 128.035 13.7961 128.292 14.0628C128.549 14.3294 128.939 14.4628 129.468 14.4628Z" fill="#14222A"/>
<path d="M126.774 16.4922V18.2772H128.799V29.0617H131.174V16.4922H126.774Z" fill="#14222A"/>
<path d="M144.319 22.8771C143.462 22.2771 142.325 21.8994 140.9 21.7586L139.467 21.6179C138.689 21.5364 138.136 21.3587 137.793 21.0772C137.458 20.7957 137.287 20.418 137.287 19.944C137.287 19.3958 137.528 18.9366 138.003 18.5811C138.478 18.2256 139.179 18.0404 140.106 18.0404C141.033 18.0404 141.726 18.2181 142.201 18.5737C142.668 18.9292 142.917 19.3514 142.933 19.8551H145.16C145.129 18.6181 144.646 17.6849 143.727 17.0553C142.808 16.4257 141.601 16.1146 140.114 16.1146C139.125 16.1146 138.253 16.2701 137.489 16.5738C136.734 16.8775 136.134 17.3219 135.706 17.8922C135.278 18.4626 135.06 19.1514 135.06 19.9514C135.06 21.018 135.457 21.8475 136.251 22.4327C137.046 23.0178 138.066 23.3808 139.319 23.5067L140.752 23.6474C141.679 23.7437 142.341 23.9363 142.754 24.2251C143.166 24.514 143.369 24.9214 143.369 25.4399C143.369 26.0176 143.088 26.5139 142.528 26.9138C141.967 27.3138 141.157 27.5138 140.106 27.5138C138.938 27.5138 138.105 27.299 137.622 26.8694C137.131 26.4398 136.874 25.9806 136.843 25.4917H134.616C134.647 26.7139 135.138 27.6842 136.088 28.3878C137.038 29.0915 138.377 29.447 140.106 29.447C141.181 29.447 142.131 29.2766 142.948 28.9433C143.774 28.6026 144.42 28.136 144.887 27.5286C145.355 26.9213 145.596 26.2324 145.596 25.4473C145.596 24.3511 145.168 23.4993 144.311 22.8919L144.319 22.8771Z" fill="#14222A"/>
<path d="M99.4873 8.43359V10.7445L106.862 8.43359H99.4873Z" fill="#14222A"/>
<path d="M79.2232 38L79.2506 37.8938C79.4458 35.5205 79.5485 33.0342 79.5485 30.476C79.5485 13.6438 75.0896 0 69.5896 0C64.528 0 60.3499 11.5548 59.7129 26.5103L79.2232 38Z" fill="#8993FF"/>
<path d="M56.4593 38.0001L56.4799 37.918C56.6306 36.0686 56.7128 34.1371 56.7128 32.144C56.7128 19.0447 53.2436 8.4248 48.9593 8.4248C45.021 8.4248 41.7676 17.418 41.2744 29.0584L56.4593 38.0001Z" fill="#5C6FEC"/>
<path d="M37.9488 38L37.9761 37.8938C38.1714 35.5205 38.2741 33.0342 38.2741 30.476C38.2741 13.6438 33.8152 0 28.3152 0C23.2535 0 19.0755 11.5548 18.4385 26.5103L37.9488 38Z" fill="#0F50CF"/>
<path d="M15.1849 38.0001L15.2055 37.918C15.3562 36.0686 15.4384 34.1371 15.4384 32.144C15.4384 19.0447 11.9692 8.4248 7.68493 8.4248C3.74658 8.4248 0.493151 17.418 0 29.0584L15.1849 38.0001Z" fill="#0A3A96"/>
</svg>
