<?xml version="1.0" encoding="UTF-8"?>
<svg version="1.1" xmlns="http://www.w3.org/2000/svg" width="128" height="128">
<path d="M0 0 C1.80688477 1.2436676 1.80688477 1.2436676 3.62890625 2.91235352 C4.32483887 3.5490799 5.02077148 4.18580627 5.73779297 4.84182739 C9.95158416 8.86183467 14.0813715 12.96014879 18.1875 17.08984375 C19.13991612 18.04412993 20.09255695 18.99819188 21.04541016 19.95204163 C23.52666925 22.4370797 26.00490791 24.92510796 28.48248291 27.41381836 C31.02162485 29.96327496 33.56367646 32.50982688 36.10546875 35.05664062 C41.07312882 40.03495631 46.03759686 45.01644371 51 50 C54.65095098 48.46340964 56.96217227 46.27424209 59.73681641 43.47436523 C60.19260574 43.01726166 60.64839508 42.56015808 61.11799622 42.08920288 C62.61717771 40.58355212 64.10925528 39.07105536 65.6015625 37.55859375 C66.64429512 36.50958825 67.68754621 35.46109789 68.73129272 34.4131012 C71.47363804 31.65747108 74.2103555 28.8963248 76.94549561 26.13354492 C81.32921521 21.70665244 85.71971741 17.28651157 90.11344528 12.86955452 C91.6480698 11.32469314 93.1792448 9.77647211 94.71011353 8.22789001 C96.1019838 6.82622337 96.1019838 6.82622337 97.52197266 5.39624023 C98.74963852 4.15619484 98.74963852 4.15619484 100.00210571 2.89109802 C103.20192772 -0.13767938 105.61643035 -0.36177788 110.0234375 -0.265625 C112 0 112 0 114.5 1.4375 C116.24884895 4.42511695 116.79983095 6.89342176 116.72412109 10.35519409 C115.07247825 16.38771378 109.46678606 20.60287745 105.0625 24.81640625 C103.93953119 25.92257281 102.81854504 27.03075544 101.69946289 28.14085388 C98.75973966 31.04634057 95.79400534 33.92377843 92.82189941 36.79608154 C89.78946807 39.73616849 86.78259964 42.70215016 83.7734375 45.66601562 C77.87358559 51.46956907 71.9459849 57.24372261 66 63 C67.53659036 66.65095098 69.72575791 68.96217227 72.52563477 71.73681641 C72.98273834 72.19260574 73.43984192 72.64839508 73.91079712 73.11799622 C75.41644788 74.61717771 76.92894464 76.10925528 78.44140625 77.6015625 C79.49041175 78.64429512 80.53890211 79.68754621 81.5868988 80.73129272 C84.34252892 83.47363804 87.1036752 86.2103555 89.86645508 88.94549561 C94.29334756 93.32921521 98.71348843 97.71971741 103.13044548 102.11344528 C104.67530686 103.6480698 106.22352789 105.1792448 107.77210999 106.71011353 C109.17377663 108.1019838 109.17377663 108.1019838 110.60375977 109.52197266 C111.4304567 110.34041656 112.25715363 111.15886047 113.10890198 112.00210571 C116.13767938 115.20192772 116.36177788 117.61643035 116.265625 122.0234375 C116 124 116 124 114.5625 126.5 C111.57488305 128.24884895 109.10657824 128.79983095 105.64480591 128.72412109 C99.61228622 127.07247825 95.39712255 121.46678606 91.18359375 117.0625 C90.07742719 115.93953119 88.96924456 114.81854504 87.85914612 113.69946289 C84.95365943 110.75973966 82.07622157 107.79400534 79.20391846 104.82189941 C76.26383151 101.78946807 73.29784984 98.78259964 70.33398438 95.7734375 C64.53043093 89.87358559 58.75627739 83.9459849 53 78 C49.3051546 79.53938391 47.0430884 81.7659104 44.2824707 84.63330078 C43.82817184 85.10176422 43.37387299 85.57022766 42.9058075 86.05288696 C41.92275308 87.06690617 40.94181068 88.08297628 39.96276283 89.10086441 C38.40881264 90.71291556 36.84566432 92.31546344 35.27909851 93.91525269 C30.82620045 98.46259882 26.37711074 103.01310072 21.96704102 107.60205078 C19.26524857 110.41203339 16.54174322 113.19930082 13.80287743 115.97314072 C12.76642422 117.03117335 11.73819686 118.0973322 10.71871376 119.17172623 C2.78023823 127.52727161 2.78023823 127.52727161 -1.60903931 128.69281006 C-5.26795617 128.77220109 -7.38706153 128.35879325 -10.5625 126.5 C-12.61741233 122.92623942 -13.05655236 119.93356203 -12 116 C-10.7563324 114.19311523 -10.7563324 114.19311523 -9.08764648 112.37109375 C-8.4509201 111.67516113 -7.81419373 110.97922852 -7.15817261 110.26220703 C-3.13816533 106.04841584 0.96014879 101.9186285 5.08984375 97.8125 C6.04412993 96.86008388 6.99819188 95.90744305 7.95204163 94.95458984 C10.4370797 92.47333075 12.92510796 89.99509209 15.41381836 87.51751709 C17.96327496 84.97837515 20.50982688 82.43632354 23.05664062 79.89453125 C28.03495631 74.92687118 33.01644371 69.96240314 38 65 C36.46061609 61.3051546 34.2340896 59.0430884 31.36669922 56.2824707 C30.89823578 55.82817184 30.42977234 55.37387299 29.94711304 54.9058075 C28.93309383 53.92275308 27.91702372 52.94181068 26.89913559 51.96276283 C25.28708444 50.40881264 23.68453656 48.84566432 22.08474731 47.27909851 C17.53740118 42.82620045 12.98689928 38.37711074 8.39794922 33.96704102 C5.58796661 31.26524857 2.80069918 28.54174322 0.02685928 25.80287743 C-1.03117335 24.76642422 -2.0973322 23.73819686 -3.17172623 22.71871376 C-11.52727161 14.78023823 -11.52727161 14.78023823 -12.69281006 10.39096069 C-12.77220109 6.73204383 -12.35879325 4.61293847 -10.5 1.4375 C-6.92623942 -0.61741233 -3.93356203 -1.05655236 0 0 Z " fill="#000000" transform="translate(12,0)"/>
</svg>
