<svg width="1822" height="201" viewBox="0 0 1822 201" fill="none" xmlns="http://www.w3.org/2000/svg">
<path d="M612.915 115.684C604.988 111.598 595.283 109.061 583.873 108.216L563.351 106.666C552.016 105.609 543.348 102.439 537.347 97.014C531.272 91.6597 528.309 84.4736 528.309 75.5262C528.309 69.256 529.864 63.479 532.902 58.1951C535.94 52.9112 540.681 48.6136 547.126 45.4433C553.572 42.2025 561.944 40.6526 572.316 40.6526C582.688 40.6526 591.652 42.4139 598.32 46.0069C604.988 49.6 609.877 54.2498 613.063 60.0268C616.175 65.8039 617.805 72.0036 617.805 78.6966H630.548C630.548 69.4674 628.325 61.154 623.806 53.7566C619.286 46.3592 612.767 40.4412 604.173 36.0732C595.505 31.6347 584.91 29.4507 572.39 29.4507C559.869 29.4507 549.571 31.4938 541.051 35.58C532.606 39.6662 526.234 45.2319 522.011 52.1362C517.788 59.0405 515.64 66.8606 515.64 75.5262C515.64 87.6439 519.789 97.3663 528.086 104.834C536.384 112.302 547.719 116.6 562.018 117.797L582.54 119.347C596.69 120.686 607.21 124.49 614.1 130.62C620.99 136.819 624.472 144.287 624.472 153.094C624.472 160.28 622.546 166.55 618.694 172.045C614.841 177.47 609.062 181.768 601.358 184.938C593.653 188.108 584.095 189.658 572.612 189.658C560.388 189.658 550.312 187.897 542.459 184.374C534.606 180.852 528.827 176.131 525.123 170.143C521.419 164.155 519.566 157.462 519.566 149.994H506.824C506.824 159.716 509.268 168.382 514.158 176.061C519.048 183.74 526.308 189.799 536.088 194.167C545.793 198.535 558.017 200.79 572.612 200.79C586.392 200.79 598.098 198.746 607.729 194.66C617.36 190.574 624.621 184.867 629.658 177.611C634.696 170.354 637.215 162.182 637.215 153.094C637.215 145.062 635.141 137.806 631.066 131.394C626.991 124.983 620.99 119.699 613.063 115.613L612.915 115.684Z" fill="#2E3D46"/>
<path d="M685.297 41.2863H673.073V79.5417H649.514V89.1936H673.073V162.886C673.073 171.693 674.629 178.738 677.815 183.951C680.926 189.165 685.445 192.899 691.224 195.012C697.003 197.196 703.745 198.253 711.45 198.253H731.897V187.474H708.857C701.448 187.474 695.669 185.501 691.52 181.556C687.372 177.611 685.297 172.045 685.297 164.859V89.1936H731.897V79.5417H685.297V41.2863Z" fill="#2E3D46"/>
<path d="M841.618 151.192C841.618 162.534 838.21 171.693 831.394 178.738C824.578 185.784 815.318 189.236 803.76 189.236C792.203 189.236 783.534 185.854 777.533 179.02C771.458 172.257 768.495 163.38 768.495 152.46V79.4718H755.752V149.783C755.752 165.282 759.605 177.611 767.31 186.699C775.015 195.788 786.276 200.367 801.241 200.367H801.908C812.132 200.367 820.503 198.254 827.097 193.956C833.691 189.729 838.655 183.74 842.062 176.061C842.952 174.089 843.693 172.116 844.285 170.002V196.985H854.213V79.5423H841.766V151.192H841.618Z" fill="#2E3D46"/>
<path d="M992.531 104.976C992.161 104.271 991.865 103.496 991.494 102.721C986.827 94.4078 980.455 87.9263 972.158 83.1355C963.934 78.3448 954.229 75.9494 943.042 75.9494C933.485 75.9494 924.965 77.6403 917.63 81.0924C910.222 84.5446 903.999 89.1944 898.887 95.1124C893.775 101.03 889.922 107.582 887.255 114.839C884.588 122.095 883.254 129.563 883.254 137.313V139.567C883.254 147.599 884.588 155.349 887.403 162.605C890.144 169.932 894.145 176.484 899.257 182.191C904.443 187.968 910.74 192.477 918.223 195.858C925.706 199.24 934.003 200.931 943.264 200.931C954.081 200.931 963.712 198.606 972.084 193.956C980.456 189.306 987.123 182.825 992.013 174.371C993.198 172.398 994.161 170.284 995.05 168.1V197.056H1004.9V33.6784H992.457V104.976H992.531ZM993.272 143.795C993.272 152.742 991.198 160.703 987.049 167.607C982.9 174.582 977.196 180.007 969.861 184.093C962.527 188.109 954.155 190.152 944.524 190.152C934.448 190.152 925.78 187.827 918.519 183.177C911.185 178.527 905.628 172.328 901.702 164.507C897.775 156.687 895.849 147.951 895.849 138.44C895.849 128.929 897.775 120.616 901.628 112.796C905.48 104.976 911.037 98.6349 918.223 93.8442C925.409 89.0535 934.226 86.6581 944.598 86.6581C954.155 86.6581 962.601 88.7012 969.935 92.717C977.27 96.7327 982.974 102.228 987.123 109.062C991.272 115.896 993.346 123.645 993.346 132.1V143.724L993.272 143.795Z" fill="#2E3D46"/>
<path d="M1051.88 54.9527C1055.51 54.9527 1058.1 54.1073 1059.73 52.346C1061.36 50.6552 1062.17 48.4007 1062.17 45.7235C1062.17 42.9055 1061.28 40.5806 1059.58 38.7488C1057.88 36.9875 1055.36 36.0716 1052.02 36.0716C1048.69 36.0716 1045.95 36.9875 1044.24 38.7488C1042.54 40.5101 1041.65 42.835 1041.65 45.7235C1041.65 48.4007 1042.54 50.5847 1044.24 52.346C1045.95 54.0369 1048.47 54.9527 1051.8 54.9527H1051.88Z" fill="#2E3D46"/>
<path d="M1030.24 79.5402V89.8261H1050.69V197.124H1063.43V79.5402H1030.24Z" fill="#2E3D46"/>
<path d="M1203.53 94.9707C1198.05 89.1233 1191.31 84.5439 1183.38 81.0917C1175.45 77.6396 1166.49 75.9488 1156.41 75.9488C1146.34 75.9488 1137.15 77.6396 1129.22 81.0917C1121.29 84.5439 1114.55 89.1233 1109.07 94.9707C1103.59 100.818 1099.44 107.37 1096.62 114.697C1093.81 122.024 1092.4 129.563 1092.4 137.312V139.567C1092.4 147.176 1093.73 154.573 1096.55 161.83C1099.29 169.086 1103.37 175.568 1108.77 181.415C1114.18 187.263 1120.92 191.912 1128.93 195.505C1136.93 199.099 1146.11 200.86 1156.49 200.86C1166.86 200.86 1175.97 199.099 1183.9 195.505C1191.82 191.912 1198.49 187.192 1203.9 181.415C1209.31 175.568 1213.46 169.086 1216.27 161.83C1219.09 154.573 1220.5 147.176 1220.5 139.567V137.312C1220.5 129.563 1219.01 122.024 1216.12 114.697C1213.24 107.37 1209.01 100.818 1203.53 94.9707ZM1201.75 163.873C1197.75 171.693 1191.97 178.033 1184.34 182.824C1176.71 187.615 1167.45 190.01 1156.41 190.01C1145.37 190.01 1136.11 187.615 1128.41 182.824C1120.7 178.033 1114.85 171.763 1110.85 163.873C1106.85 156.052 1104.85 147.598 1104.85 138.44C1104.85 129.281 1106.85 120.404 1111 112.584C1115.15 104.764 1121 98.4933 1128.78 93.7731C1136.56 89.0528 1145.74 86.7279 1156.41 86.7279C1167.08 86.7279 1176.49 89.0528 1184.05 93.7731C1191.68 98.4933 1197.53 104.764 1201.6 112.584C1205.68 120.404 1207.75 129.069 1207.75 138.44C1207.75 147.81 1205.75 155.982 1201.75 163.873Z" fill="#2E3D46"/>
<path d="M1362.22 106.664H1393.27C1393.12 123.643 1391.12 138.367 1387.12 150.696C1385.56 155.417 1383.71 159.714 1381.63 163.659L1333.33 115.189C1325.48 107.298 1319.77 100.253 1316.14 94.1235C1312.51 87.9942 1310.73 81.1604 1310.73 73.5516C1310.73 63.6883 1313.7 56.2204 1319.7 51.0774C1325.62 45.9345 1335.18 43.3277 1348.22 43.3277C1352 43.3277 1356.07 43.3982 1360.45 43.5391C1364.82 43.68 1369.34 43.8914 1373.85 44.2436C1378.37 44.5254 1382.74 45.0186 1386.82 45.5822V34.8031C1380.82 34.0281 1374.74 33.4645 1368.45 33.1122C1362.15 32.76 1356.22 32.5486 1350.52 32.5486C1338.44 32.5486 1328.51 34.169 1320.88 37.3393C1313.18 40.5801 1307.55 45.1595 1303.92 51.2183C1300.29 57.2772 1298.51 64.6042 1298.51 73.2698C1298.51 79.1173 1299.4 84.4716 1301.18 89.4032C1302.95 94.3349 1305.84 99.3369 1309.77 104.55C1309.99 104.903 1310.29 105.255 1310.59 105.537C1302.81 110.116 1296.14 115.964 1290.58 123.22C1284.21 131.604 1281.02 141.044 1281.02 151.683V154.148C1281.02 163.237 1283.54 171.339 1288.58 178.454C1293.62 185.57 1300.36 191.065 1308.96 195.011C1317.47 198.956 1326.88 200.928 1337.11 200.928C1348.59 200.928 1358.52 198.674 1367.04 194.095C1373.34 190.713 1378.82 186.274 1383.49 180.709L1399.71 197.124H1415.05L1389.78 171.761C1394.52 163.941 1398.15 154.783 1400.67 144.285C1403.41 133.013 1404.75 120.402 1404.9 106.664H1420.01V96.8007H1362.3V106.664H1362.22ZM1368.3 179.934C1360 186.697 1349.55 190.149 1336.96 190.149C1329.55 190.149 1322.51 188.74 1315.77 185.922C1309.03 183.104 1303.55 178.877 1299.4 173.382C1295.25 167.887 1293.17 161.053 1293.17 153.021C1293.17 144.215 1295.62 136.254 1300.51 129.209C1304.81 122.938 1310.58 117.936 1317.62 113.991C1319.99 116.668 1322.59 119.416 1325.48 122.375L1375.48 172.818C1373.26 175.495 1370.97 177.961 1368.37 180.075L1368.3 179.934Z" fill="#2E3D46"/>
<path d="M1607.15 177.54C1595.74 185.642 1581.74 189.728 1565.14 189.728C1552.92 189.728 1542.25 187.614 1533.21 183.317C1524.18 179.089 1516.69 173.453 1510.69 166.408C1504.69 159.363 1500.25 151.402 1497.28 142.455C1494.32 133.507 1492.84 124.419 1492.84 115.119C1492.84 105.115 1494.32 95.6745 1497.28 86.6567C1500.25 77.7093 1504.76 69.7483 1510.69 62.844C1516.62 55.9397 1524.03 50.4445 1532.84 46.4992C1541.66 42.5539 1551.81 40.5812 1563.44 40.5812C1574.11 40.5812 1583.81 42.3425 1592.48 45.9356C1601.22 49.5286 1608.41 54.8125 1614.04 61.8577C1619.67 68.9028 1623.23 77.4275 1624.64 87.5726H1637.6C1636.19 75.948 1632.27 65.7325 1625.82 56.9965C1619.38 48.2605 1610.86 41.4971 1600.26 36.6359C1589.67 31.7747 1577.37 29.3794 1563.44 29.3794C1549.51 29.3794 1536.77 31.8452 1526.25 36.6359C1515.73 41.4971 1507.06 47.9786 1500.25 56.1511C1493.43 64.3235 1488.32 73.3413 1484.91 83.275C1481.5 93.2087 1479.87 103.213 1479.87 113.358V116.74C1479.87 126.18 1481.5 135.832 1484.84 145.766C1488.17 155.699 1493.21 164.788 1500.02 173.101C1506.84 181.414 1515.66 188.107 1526.55 193.25C1537.36 198.393 1550.25 201 1565.14 201C1580.04 201 1592.11 198.464 1602.78 193.462C1613.45 188.46 1622.04 181.626 1628.56 172.89C1635.08 164.154 1639.23 154.15 1640.94 142.807H1627.97C1625.45 157.883 1618.49 169.508 1607.15 177.61V177.54Z" fill="#2E3D46"/>
<path d="M1766.95 94.9707C1761.47 89.1233 1754.73 84.5439 1746.8 81.0917C1738.88 77.6396 1729.91 75.9488 1719.84 75.9488C1709.76 75.9488 1700.57 77.6396 1692.65 81.0917C1684.72 84.5439 1677.98 89.1233 1672.49 94.9707C1667.01 100.818 1662.86 107.37 1660.05 114.697C1657.23 122.024 1655.82 129.563 1655.82 137.312V139.567C1655.82 147.176 1657.16 154.573 1659.97 161.83C1662.71 169.086 1666.79 175.568 1672.2 181.415C1677.61 187.263 1684.35 191.912 1692.35 195.505C1700.35 199.099 1709.54 200.86 1719.91 200.86C1730.28 200.86 1739.39 199.099 1747.32 195.505C1755.25 191.912 1761.92 187.192 1767.32 181.415C1772.73 175.568 1776.88 169.086 1779.7 161.83C1782.51 154.573 1783.92 147.176 1783.92 139.567V137.312C1783.92 129.563 1782.44 122.024 1779.55 114.697C1776.66 107.37 1772.44 100.818 1766.95 94.9707ZM1765.18 163.873C1761.18 171.693 1755.4 178.033 1747.77 182.824C1740.13 187.615 1730.87 190.01 1719.84 190.01C1708.8 190.01 1699.54 187.615 1691.83 182.824C1684.13 178.033 1678.27 171.763 1674.27 163.873C1670.27 156.052 1668.27 147.598 1668.27 138.44C1668.27 129.281 1670.27 120.404 1674.42 112.584C1678.57 104.764 1684.42 98.4933 1692.2 93.7731C1699.98 89.0528 1709.17 86.7279 1719.84 86.7279C1730.5 86.7279 1739.91 89.0528 1747.47 93.7731C1755.1 98.4933 1760.95 104.764 1765.03 112.584C1769.1 120.404 1771.18 129.069 1771.18 138.44C1771.18 147.81 1769.18 155.982 1765.18 163.873Z" fill="#2E3D46"/>
<path d="M1822 179.865H1805.55V197.125H1822V179.865Z" fill="#2E3D46"/>
<path d="M23.1866 122.938H94.5316V103.282H23.1866V52.4157H99.4953V32.7597H0.145749V196.208H101.792V176.481H23.1866V122.938Z" fill="#2E3D46"/>
<path d="M122.094 32.7597V49.7386H139.505V196.208H162.101V32.7597H122.094Z" fill="#2E3D46"/>
<path d="M189.438 32.7597V49.7386H206.848V196.208H229.444V32.7597H189.438Z" fill="#2E3D46"/>
<path d="M285.231 57.3474C290.269 57.3474 293.973 56.0793 296.418 53.543C298.863 51.0067 300.048 47.8364 300.048 43.8911C300.048 39.9458 298.863 36.7755 296.418 34.2392C293.973 31.7029 290.269 30.4348 285.231 30.4348C280.193 30.4348 276.489 31.7029 274.044 34.2392C271.599 36.7755 270.414 40.0162 270.414 43.8911C270.414 47.7659 271.599 51.0067 274.044 53.543C276.489 56.0793 280.193 57.3474 285.231 57.3474Z" fill="#2E3D46"/>
<path d="M259.598 76.6504V93.6293H278.861V196.207H301.457V76.6504H259.598Z" fill="#2E3D46"/>
<path d="M426.516 137.382C418.366 131.675 407.55 128.082 393.992 126.743L380.36 125.405C372.951 124.63 367.691 122.939 364.431 120.262C361.246 117.585 359.616 113.992 359.616 109.483C359.616 104.269 361.913 99.9011 366.432 96.5194C370.951 93.1378 377.619 91.3765 386.435 91.3765C395.251 91.3765 401.845 93.0673 406.364 96.449C410.809 99.8307 413.18 103.846 413.328 108.637H434.517C434.221 96.8717 429.627 87.9948 420.885 82.0064C412.143 76.018 400.66 73.059 386.509 73.059C377.1 73.059 368.803 74.5385 361.542 77.427C354.356 80.3155 348.651 84.5426 344.576 89.9674C340.502 95.3922 338.427 101.944 338.427 109.553C338.427 119.698 342.206 127.589 349.762 133.154C357.319 138.72 367.025 142.172 378.952 143.37L392.584 144.708C401.4 145.624 407.698 147.456 411.624 150.204C415.551 152.951 417.477 156.826 417.477 161.758C417.477 167.253 414.81 171.973 409.476 175.778C404.142 179.582 396.437 181.484 386.435 181.484C375.322 181.484 367.395 179.441 362.802 175.355C358.134 171.269 355.689 166.901 355.393 162.251H334.204C334.501 173.876 339.168 183.105 348.207 189.798C357.245 196.491 369.988 199.872 386.435 199.872C396.659 199.872 405.697 198.252 413.477 195.082C421.33 191.841 427.479 187.402 431.924 181.625C436.369 175.848 438.666 169.296 438.666 161.828C438.666 151.401 434.591 143.299 426.442 137.522L426.516 137.382Z" fill="#2E3D46"/>
<path d="M0 0V21.981L70.1596 0H0Z" fill="#2E3D46"/>
</svg>
