<svg version="1.2" xmlns="http://www.w3.org/2000/svg" viewBox="0 0 128 92" width="128" height="92">
	<style>
		.s0 { fill: #000000 } 
	</style>
	<path class="s0" d="m9.01 38.62q1.51-0.01 3.06-0.03 1.64 0.01 3.34 0.02 1.73-0.01 3.53-0.01 5.78-0.02 11.56 0 4.01 0 8.03-0.01 8.41 0 16.82 0.02 9.73 0.02 19.45-0.01 8.35-0.02 16.7 0 4.99 0 9.98-0.01 5.55-0.01 11.11 0.02 1.65-0.01 3.34-0.02 1.51 0.02 3.06 0.03c1.31 0 1.31 0 2.65 0 2.87 0.46 4.25 1.42 6.36 3.38 0.53 1.94 0.53 1.94 0.5 4 0.02 1.02 0.02 1.02 0.03 2.06-0.76 2.78-2.11 3.45-4.53 4.94-2.36 0.38-2.36 0.38-5.01 0.38-1.51 0.01-1.51 0.01-3.06 0.03q-1.64-0.01-3.34-0.02-1.73 0.01-3.53 0.01-5.78 0.02-11.56 0-4.01 0-8.03 0.01-8.41 0-16.82-0.02-9.73-0.02-19.45 0.01-8.35 0.02-16.7 0-4.99 0-9.98 0.01-5.55 0.01-11.11-0.02c-1.66 0.01-1.66 0.01-3.34 0.02-1.52-0.02-1.52-0.02-3.06-0.03-1.31 0-1.31 0-2.65 0-2.87-0.46-4.25-1.42-6.36-3.38-0.53-1.94-0.53-1.94-0.5-4q-0.02-1.02-0.03-2.06c1.26-4.6 5.29-5.32 9.54-5.32z"/>
	<path class="s0" d="m43.55 0.61q1.31-0.01 2.65-0.01 4.34-0.02 8.68 0 3 0 6.01-0.01 6.31 0 12.62 0.02 8.1 0.02 16.2-0.01 6.21-0.02 12.43 0 2.98 0 5.97-0.01 4.17-0.01 8.34 0.02c1.23-0.01 1.23-0.01 2.5-0.02 5.6 0.07 5.6 0.07 7.76 1.72 2.14 2.8 1.65 5.3 1.29 8.69-1.29 1.69-1.29 1.69-3 3-2.92 0.3-5.63 0.41-8.55 0.39q-1.31 0.01-2.65 0.01-4.34 0.02-8.67 0-3.01 0-6.02 0.01-6.31 0-12.62-0.02-8.1-0.02-16.2 0.01-6.21 0.02-12.43 0-2.98 0-5.97 0.01-4.17 0.01-8.34-0.02c-1.23 0.01-1.23 0.01-2.5 0.02-5.6-0.07-5.6-0.07-7.76-1.72-2.14-2.8-1.65-5.3-1.29-8.69 3.06-4.03 6.87-3.42 11.55-3.39z"/>
	<path class="s0" d="m66.15 77.73q1.92-0.02 3.91-0.03 2.12 0 4.25 0 2.17-0.01 4.34-0.01 4.55-0.01 9.11-0.01 5.83 0.01 11.67-0.03 4.49-0.02 8.97-0.01 2.15 0 4.31-0.02 3.01-0.01 6.01 0.01 1.71 0 3.47 0c2.81 0.37 2.81 0.37 4.68 1.67 1.9 2.86 1.49 5.39 1.13 8.7-1.14 1.69-1.14 1.69-3 3-2.76 0.39-2.76 0.39-6.15 0.4q-1.89 0.02-3.85 0.04-2.07 0-4.15-0.01-2.13 0.01-4.27 0.02-4.46 0.01-8.93 0-5.72-0.02-11.44 0.03-4.41 0.03-8.81 0.02-2.11 0-4.22 0.01-2.95 0.02-5.9-0.01-1.67 0-3.39 0c-3.56-0.62-4.78-1.6-6.89-4.5 0.26-7.51 1.82-9.25 9.15-9.27z"/>
</svg>