<svg width="179" height="39" viewBox="0 0 179 39" fill="none" xmlns="http://www.w3.org/2000/svg">
<g clip-path="url(#clip0_267_79)">
<path d="M67.5668 27.7961H80.9064V33.819H64.6662C62.9498 33.819 61.5569 32.4235 61.5569 30.7019V8.87695H67.5668V27.7987V27.7961Z" fill="white"/>
<path d="M90.3098 13.6787H84.2634V33.8186H90.3098V13.6787Z" fill="white"/>
<path d="M110.81 18.7783C107.565 18.8148 102.624 19.3704 102.624 23.9509V33.8187H96.6145V13.6788H102.257V17.2263C103.657 13.9735 106.498 13.2354 110.81 13.2354V18.7783Z" fill="white"/>
<path d="M117.816 11.258C116.121 11.258 114.756 9.97459 114.756 8.44343C114.756 6.91227 116.121 5.62891 117.816 5.62891C119.512 5.62891 120.912 6.87053 120.912 8.44343C120.912 10.0163 119.512 11.258 117.816 11.258Z" fill="white"/>
<path d="M120.803 13.4619H114.829V33.8183H120.803V13.4619Z" fill="white"/>
<path d="M137.734 34.2621C130.211 34.2621 124.314 30.7511 124.314 23.7292C124.314 16.7072 130.214 13.2354 137.734 13.2354C145.254 13.2354 151.118 16.7463 151.118 23.7292C151.118 30.712 145.218 34.2621 137.734 34.2621ZM137.695 17.7454C133.529 17.7454 129.914 19.5556 129.914 23.7318C129.914 27.9079 133.527 29.7547 137.695 29.7547C141.863 29.7547 145.437 27.9444 145.437 23.7318C145.437 19.5191 141.824 17.7454 137.695 17.7454Z" fill="white"/>
<path d="M179 33.8187H172.953V25.3934C172.953 19.407 170.668 17.928 167.165 17.928C164.659 17.928 162.741 18.8148 160.529 20.7007V33.8187H154.52V13.6788H160.198V16.1177C162.115 14.4535 164.734 13.2354 168.089 13.2354C173.36 13.2354 179.002 15.1943 179.002 25.2447V33.8187H179Z" fill="white"/>
<path d="M84.2556 12.1866L92.0523 9.24168C92.9965 8.88433 93.4817 7.75226 93.127 6.74017L92.4853 4.40039L85.4346 7.91398C84.7147 8.27134 84.2556 9.05387 84.2556 9.91206V12.1866Z" fill="white"/>
<path d="M5.08388 18.0844C7.05065 17.5601 8.6079 16.2976 10.0712 14.8212C14.9256 9.93039 21.3972 6.85241 28.3461 8.72789C31.5701 9.59911 34.502 11.3233 37.0583 13.4466C38.6573 14.7743 40.3789 16.2611 42.3144 17.2028C44.5029 18.267 46.7226 18.2018 49.0833 18.4C48.6216 6.15856 37.9921 0 24.5769 0C11.1616 0 0.47213 6.15074 0 18.3818C0.00260846 18.2774 3.49272 18.34 3.86312 18.3035C4.2883 18.2618 4.69261 18.1888 5.08388 18.0844Z" fill="white"/>
<path d="M44.6254 20.5965C42.2205 21.0112 40.225 22.0233 38.2139 23.5831C34.849 26.1916 31.9718 29.1365 27.6679 30.0808C23.6013 30.9729 19.1826 30.3182 15.6403 28.0958C13.2353 26.5855 11.6989 24.2013 9.66954 22.2763C9.04612 21.6868 8.36531 21.1416 7.57495 20.8077C6.96457 20.5521 0.00260845 20.2104 0 20.1556C0.50604 32.4075 11.1225 38.5374 24.5743 38.5374C38.0261 38.5374 48.5851 32.4023 49.0807 20.1348C48.9894 20.3669 46.1462 20.4139 45.8436 20.44C45.4236 20.4765 45.0193 20.5286 44.6228 20.5965" fill="white"/>
</g>
<defs>
<clipPath id="clip0_267_79">
<rect width="179" height="38.5373" fill="white"/>
</clipPath>
</defs>
</svg>
