<svg width="136" height="29" viewBox="0 0 136 29" fill="none" xmlns="http://www.w3.org/2000/svg">
<g clip-path="url(#clip0_267_178)">
<path d="M19.6978 14.4486C18.2615 13.6834 16.3327 12.7906 13.9114 11.7735C10.8323 10.4826 8.52542 9.33476 6.98748 8.33315C5.44953 7.33154 4.68056 6.13397 4.68056 4.74042C4.68056 3.65483 5.24299 2.73721 6.37421 1.98755C7.50224 1.24101 8.86542 0.867743 10.4669 0.867743C12.5196 0.867743 14.5596 1.34366 16.5901 2.2955C18.6206 3.24734 20.2729 4.2645 21.5439 5.35321L23.5744 1.27523C20.2507 0.494473 16.8062 0.102539 13.2346 0.102539C9.37701 0.102539 6.20579 0.656223 3.72411 1.76048C1.24243 2.86163 0 4.62222 0 7.03293C0 8.2896 0.47028 9.41252 1.41402 10.3955C2.35776 11.3815 3.50804 12.2307 4.86168 12.943C6.21533 13.6554 8.04243 14.5077 10.3398 15.4906C12.5164 16.4424 14.2196 17.2325 15.4493 17.8609C16.6791 18.4892 17.715 19.2295 18.557 20.0787C19.3991 20.9279 19.8185 21.8798 19.8185 22.9342C19.8185 24.7695 19.2751 26.1133 18.1884 26.9593C17.0985 27.8085 15.6336 28.2347 13.7875 28.2347C11.9413 28.2347 9.8886 27.8614 7.63252 27.1149C5.37645 26.3683 2.14486 24.6388 0.0540187 23.4164V28.0107C0.381308 28.0449 1.70318 28.356 3.13944 28.4929C3.54935 28.5271 4.65514 28.6204 6.46318 28.7728C8.26804 28.9252 10.0125 29.003 11.6966 29.003C15.6368 29.003 18.8144 28.4089 21.2389 27.2206C23.6602 26.0324 24.8708 23.8923 24.8708 20.8004C24.8708 19.4411 24.3688 18.2341 23.3615 17.1828C22.3574 16.1283 21.134 15.22 19.6978 14.4548" fill="white"/>
<path d="M103.709 14.4486C102.273 13.6834 100.344 12.7906 97.9231 11.7735C94.8441 10.4826 92.5371 9.33476 90.9992 8.33315C89.4612 7.33154 88.6923 6.13397 88.6923 4.74042C88.6923 3.65483 89.2547 2.73721 90.3859 1.98755C91.514 1.24101 92.8771 0.867743 94.4786 0.867743C96.5313 0.867743 98.5713 1.34366 100.602 2.2955C102.632 3.24734 104.285 4.2645 105.556 5.35321L107.586 1.27523C104.262 0.494473 100.815 0.102539 97.2463 0.102539C93.3887 0.102539 90.2175 0.656223 87.7358 1.76048C85.2541 2.86474 84.0117 4.62222 84.0117 7.03604C84.0117 8.29271 84.482 9.41564 85.4257 10.3986C86.3695 11.3846 87.5198 12.2338 88.8734 12.9462C90.227 13.6585 92.0541 14.5108 94.3515 15.4937C96.5282 16.4456 98.2313 17.2357 99.4611 17.864C100.691 18.4923 101.727 19.2326 102.569 20.0818C103.411 20.931 103.83 21.8829 103.83 22.9374C103.83 24.7726 103.287 26.1164 102.2 26.9625C101.11 27.8116 99.6454 28.2378 97.7992 28.2378C95.953 28.2378 93.9003 27.8645 91.6442 27.118C89.3882 26.3714 86.1566 24.642 84.0657 23.4195V28.0138C84.393 28.048 85.7149 28.3591 87.1511 28.496C87.5611 28.5302 88.6669 28.6235 90.4749 28.7759C92.2798 28.9283 94.0242 29.0061 95.7084 29.0061C99.6485 29.0061 102.826 28.412 105.251 27.2237C107.672 26.0355 108.883 23.8954 108.883 20.8035C108.883 19.4442 108.381 18.2373 107.373 17.1859C106.369 16.1314 105.146 15.2231 103.709 14.4579" fill="white"/>
<path d="M131.313 27.3449C129.89 27.939 128.45 28.2376 126.992 28.2376C124.284 28.2376 122.028 27.1178 120.223 24.8751C118.419 22.6323 117.516 19.0489 117.516 14.1218C117.516 9.94114 118.158 6.6968 119.442 4.38564C120.725 2.07447 122.565 0.920443 124.961 0.920443C126.245 0.920443 127.322 1.30304 128.19 2.06825C129.057 2.83345 129.689 3.74174 130.09 4.79623C130.487 5.85072 130.687 6.85233 130.687 7.80106C130.687 9.22882 130.417 10.4855 129.88 11.5742C129.343 12.6629 128.692 13.5619 127.929 14.2742C127.166 14.9865 126.159 15.8046 124.91 16.7191C123.417 17.8389 122.333 18.7908 121.656 19.5746C120.98 20.3554 120.64 21.3259 120.64 22.4799H121.472C121.472 21.2917 121.993 20.2372 123.032 19.3196C124.075 18.4019 125.689 17.2977 127.875 16.0068C129.61 14.9523 131.024 14.0378 132.12 13.2539C133.213 12.4732 134.132 11.5462 134.878 10.4762C135.625 9.40612 135.997 8.22721 135.997 6.93321C135.997 4.89577 135.206 3.24716 133.63 1.99048C132.05 0.733807 129.543 0.105469 126.105 0.105469C123.573 0.105469 121.243 0.659153 119.127 1.7603C117.011 2.86456 115.317 4.47895 114.053 6.60348C112.785 8.72801 112.152 11.2351 112.152 14.1218C112.152 17.5527 112.81 20.3834 114.132 22.6075C115.451 24.8346 117.16 26.4552 119.261 27.4755C121.358 28.4958 123.623 29.0059 126.054 29.0059C127.859 29.0059 129.584 28.7415 131.234 28.2158C132.883 27.6902 134.278 26.9685 135.425 26.0509L134.904 25.0306C133.931 25.9824 132.733 26.7539 131.313 27.348" fill="white"/>
<path d="M61.4668 19.416V18.0443C61.1872 16.5761 57.139 22.1907 56.0618 23.7211C56.0554 23.8424 56.0491 23.9575 56.0427 24.0757V28.2346H61.4668V19.4129V19.416Z" fill="white"/>
<path d="M74.8444 28.235H80.2177V15.3696C80.2177 15.326 80.2082 15.2856 80.2082 15.2389V9.06754C80.2082 7.13276 79.8332 5.47481 79.0896 4.09993C78.3429 2.72505 77.3452 1.69545 76.0964 1.01734C74.8476 0.339235 73.4939 -0.00292969 72.0354 -0.00292969C69.7794 -0.00292969 67.6631 0.752943 65.6835 2.26469C64.7112 3.00812 63.885 3.90397 63.2082 4.94601L63.1986 4.92424L61.47 7.70199V0.560086H55.1689V0.662736C55.5153 1.10444 55.7695 2.27713 55.9252 4.1777C56.0809 6.08138 56.1603 8.27123 56.1603 10.7535V15.7615H56.154C56.154 22.7572 50.4566 28.0483 42.8431 28.2225C40.2502 28.1541 38.0736 27.0436 36.3259 24.8724C34.5211 22.6297 33.6186 19.0463 33.6186 14.1191C33.6186 9.93851 34.2605 6.69416 35.5442 4.383C36.828 2.07183 38.6678 0.917804 41.0637 0.917804C42.3474 0.917804 43.4246 1.30041 44.2921 2.06561C45.1596 2.83081 45.7919 3.73911 46.1923 4.79359C46.5926 5.84808 46.7897 6.84969 46.7897 7.80153C46.7897 9.22929 46.5196 10.486 45.9826 11.5716C45.4424 12.6603 44.7941 13.5592 44.0283 14.2716C43.2657 14.9839 42.2584 15.802 41.0097 16.7165C39.5162 17.8363 38.4326 18.7881 37.7558 19.572C37.079 20.3559 36.7422 21.3233 36.7422 22.4773H37.5747C37.5747 21.289 38.0958 20.2345 39.1381 19.3169C40.1803 18.3993 41.7913 17.295 43.9807 16.0041C45.7156 14.9497 47.1297 14.0351 48.2227 13.2513C49.3158 12.4705 50.2341 11.5436 50.9809 10.4735C51.7276 9.40348 52.0994 8.22457 52.0994 6.93057C52.0994 4.89313 51.3082 3.24452 49.7289 1.98785C48.1497 0.731169 45.6426 0.10283 42.2044 0.10283C39.6719 0.10283 37.3459 0.656515 35.2297 1.76077C33.1134 2.86503 31.4197 4.47943 30.1519 6.60085C28.884 8.72538 28.2517 11.2325 28.2517 14.1191C28.2517 17.5501 28.9095 20.3807 30.2313 22.6048C31.55 24.832 33.2596 26.4526 35.3599 27.4729C37.4603 28.4932 39.7259 29.0033 42.1536 29.0033C42.5571 29.0033 42.9543 28.9815 43.3483 28.9535C49.4588 28.6425 54.3173 25.1742 56.1349 20.1879C56.1349 20.1972 56.1349 20.2097 56.1349 20.219L62.7252 7.51847C62.7347 7.50292 62.7379 7.48736 62.7474 7.47181C63.5958 5.72055 64.6635 4.42344 65.9504 3.57113C67.2341 2.72194 68.5528 2.29579 69.9065 2.29579C71.4317 2.29579 72.6392 2.77171 73.5257 3.72355C74.4123 4.67539 74.854 6.45776 74.854 9.07376V18.0447C74.8667 18.8597 74.8635 19.6373 74.854 20.3932V28.235H74.8444Z" fill="white"/>
</g>
<defs>
<clipPath id="clip0_267_178">
<rect width="136" height="29" fill="white"/>
</clipPath>
</defs>
</svg>
